<svg width="513" height="513" viewBox="0 0 513 513" fill="none" xmlns="http://www.w3.org/2000/svg">
<g filter="url(#filter0_i_1_9)">
<rect x="0.1604" y="0.160156" width="512" height="512" rx="100" fill="#090B0C"/>
</g>
<path fill-rule="evenodd" clip-rule="evenodd" d="M186.613 79.6935C183.122 81.7193 180.955 85.4351 180.919 89.4711L180.496 136.581C180.232 166.072 179.93 194.803 179.826 200.425C179.741 205.018 174.758 207.833 170.78 205.537L142.917 189.457L111.942 171.579C108.391 169.53 104.015 169.544 100.477 171.615C91.1565 177.069 81.8347 182.52 72.5689 188.066C69.1764 190.096 67.0954 193.751 67.0582 197.704L66.4756 259.622C66.3923 268.481 76.0019 274.047 83.6441 269.566L123.434 246.236L174.859 216.084C178.396 214.01 182.775 213.995 186.327 216.046L217.86 234.25C238.363 246.087 255.255 255.655 255.398 255.512C255.54 255.37 255.84 217.679 256.063 171.755C256.18 147.711 256.797 104.012 257.04 87.4321C257.1 83.3229 254.953 79.5313 251.395 77.4737C244.973 73.76 234.383 67.6936 226.05 63.2058C222.788 61.4492 218.87 61.4691 215.611 63.2308C205.834 68.5162 196.226 74.1146 186.613 79.6935ZM330.387 148.117L330.739 207.043C330.763 211.144 328.584 214.942 325.031 216.99L288.743 237.904C265.623 251.228 214.639 280.352 175.444 302.622L109.951 339.836C106.384 341.862 104.181 345.647 104.181 349.749V366.3V382.895C104.181 386.973 106.359 390.741 109.893 392.776L122.048 399.776L136.19 407.922C138.502 409.253 141.342 409.279 143.678 407.99C145.749 406.848 171.587 392.187 201.098 375.412L237.872 354.507C245.438 350.206 254.84 355.627 254.908 364.33L255.091 387.457L255.374 423.473C255.406 427.518 257.575 431.241 261.087 433.249C268.322 437.386 281.082 444.639 290.875 449.983C294.321 451.864 298.491 451.781 301.891 449.816L355.091 419.063C362.68 414.677 362.683 403.735 355.087 399.363C344.551 393.299 330.034 384.972 314.142 375.939L262.2 346.415C258.634 344.389 256.432 340.604 256.432 336.503V300.349V259.269C256.432 258.495 257.256 257.999 257.941 258.361C258.771 258.8 292.631 278.618 333.186 302.401L401.249 342.313C404.761 344.372 409.103 344.405 412.639 342.39C421.637 337.263 430.612 332.099 439.581 326.923C443.085 324.902 445.253 321.175 445.281 317.13L445.493 286.667C445.521 282.59 443.37 278.808 439.852 276.748L389.551 247.299C370.236 235.991 353.125 225.782 343.051 219.742C338.729 217.151 338.732 210.917 343.06 208.337C349.728 204.363 359.326 198.691 369.949 192.563C382.866 185.113 394.36 178.458 400.887 174.677C404.403 172.64 406.563 168.888 406.534 164.825C406.454 154.099 406.195 143.374 405.949 132.65C405.858 128.661 403.693 125.008 400.236 123.016L367.901 104.391L347.207 92.471C339.58 88.0776 330.062 93.6171 330.115 102.42L330.387 148.117Z" fill="#A8E600"/>
<path fill-rule="evenodd" clip-rule="evenodd" d="M274.513 107.315C271 109.343 268.829 113.084 268.81 117.14L268.68 145.757C268.592 165.1 268.743 191.85 269.015 205.204L269.511 229.482L293.125 215.935L310.998 205.682C314.548 203.645 316.735 199.861 316.726 195.768L316.672 168.852C316.634 150.408 316.42 123.657 316.196 109.407L316.094 102.885C315.957 94.1889 306.527 88.8412 298.994 93.188L274.513 107.315ZM140.916 105.368L122.65 115.926C119.124 117.964 116.952 121.729 116.955 125.803L116.965 148.789C116.967 152.898 119.179 156.688 122.757 158.71L140.997 169.02C154.213 176.49 165.456 182.602 165.456 182.602C165.456 182.602 165.886 162.078 165.886 136.994C165.886 127.048 165.807 117.829 165.712 110.324C165.603 101.745 156.399 96.4908 148.951 100.749C146.417 102.198 143.709 103.753 140.916 105.368ZM363.114 214.975L400.822 237.091C410.076 242.52 419.309 247.989 428.575 253.401C436.13 257.815 445.561 252.339 445.553 243.589L445.545 234.813L445.525 212.964C445.521 208.907 443.363 205.157 439.855 203.119C432.378 198.773 424.898 194.432 417.409 190.105C413.878 188.065 409.526 188.07 405.998 190.116L363.114 214.975ZM127.859 258.96C114.021 266.862 101.312 274.158 91.8337 279.609C84.3022 283.942 84.2179 294.757 91.666 299.23L117.052 314.475C120.634 316.626 125.106 316.646 128.707 314.526L228.088 256.017L186.787 232.443C183.381 230.499 179.22 230.439 175.772 232.308C166.919 237.106 148.471 247.189 127.859 258.96ZM271.348 308.853L271.481 329.76C271.507 333.864 273.736 337.637 277.318 339.641C304.794 355.01 332.247 370.422 359.81 385.633C367.235 389.73 376.262 384.548 376.307 376.067C376.361 365.77 376.288 355.038 376.225 348.428C376.186 344.412 374.023 340.737 370.546 338.728C347.988 325.691 325.43 312.654 302.871 299.62L271.173 281.306L271.348 308.853ZM170.878 407.583C163.271 411.909 163.277 422.798 170.852 427.181L198.626 443.25C202.042 445.226 206.238 445.295 209.717 443.432L237.668 428.466C241.375 426.482 243.688 422.619 243.688 418.414V396.145C243.688 373.293 242.85 367.085 242.85 367.085C242.85 367.085 199.397 391.362 170.878 407.583Z" fill="white"/>
<defs>
<filter id="filter0_i_1_9" x="0.1604" y="0.160156" width="541.493" height="551.324" filterUnits="userSpaceOnUse" color-interpolation-filters="sRGB">
<feFlood flood-opacity="0" result="BackgroundImageFix"/>
<feBlend mode="normal" in="SourceGraphic" in2="BackgroundImageFix" result="shape"/>
<feColorMatrix in="SourceAlpha" type="matrix" values="0 0 0 0 0 0 0 0 0 0 0 0 0 0 0 0 0 0 127 0" result="hardAlpha"/>
<feOffset dx="29.4932" dy="39.3242"/>
<feGaussianBlur stdDeviation="175.555"/>
<feComposite in2="hardAlpha" operator="arithmetic" k2="-1" k3="1"/>
<feColorMatrix type="matrix" values="0 0 0 0 0 0 0 0 0 0 0 0 0 0 0 0 0 0 0.34 0"/>
<feBlend mode="normal" in2="shape" result="effect1_innerShadow_1_9"/>
</filter>
</defs>
</svg>
