<svg width="1039" height="1039" viewBox="0 0 1039 1039" fill="none" xmlns="http://www.w3.org/2000/svg">
<path fill-rule="evenodd" clip-rule="evenodd" d="M356.094 102.428C347.852 107.211 342.735 115.984 342.65 125.513L341.652 236.74C341.028 306.37 340.316 374.203 340.069 387.478C339.868 398.321 328.104 404.969 318.711 399.548L252.927 361.581L179.794 319.371C171.411 314.533 161.077 314.567 152.724 319.456C130.719 332.333 108.71 345.204 86.8331 358.298C78.8235 363.091 73.9102 371.72 73.8223 381.054L72.4469 527.244C72.2502 548.16 94.9387 561.3 112.982 550.72L206.927 495.638L328.342 424.449C336.694 419.552 347.033 419.517 355.418 424.358L429.869 467.34C478.277 495.287 518.16 517.878 518.496 517.54C518.832 517.205 519.539 428.215 520.067 319.786C520.343 263.019 521.8 159.845 522.374 120.699C522.516 110.997 517.445 102.045 509.045 97.187C493.884 88.4189 468.879 74.0959 449.205 63.5002C441.504 59.3527 432.253 59.3997 424.558 63.5593C401.474 76.0382 378.791 89.256 356.094 102.428ZM695.548 263.977L696.378 403.103C696.436 412.785 691.29 421.753 682.901 426.588L597.224 475.966C542.637 507.425 422.263 576.186 329.723 628.766L175.092 716.629C166.672 721.413 161.471 730.351 161.471 740.035V779.112V818.294C161.471 827.922 166.613 836.817 174.956 841.622L203.654 858.15L237.043 877.382C242.502 880.526 249.208 880.587 254.723 877.543C259.612 874.846 320.618 840.232 390.294 800.625L477.117 751.269C494.981 741.114 517.178 753.912 517.34 774.46L517.771 829.064L518.441 914.098C518.516 923.649 523.637 932.44 531.929 937.181C549.011 946.947 579.137 964.073 602.258 976.69C610.395 981.131 620.241 980.935 628.267 976.295L753.875 903.687C771.791 893.331 771.799 867.498 753.864 857.175C728.989 842.857 694.713 823.196 657.193 801.869L534.556 732.164C526.138 727.379 520.938 718.443 520.938 708.76V623.401V526.41C520.938 524.581 522.884 523.41 524.501 524.266C526.461 525.303 606.405 572.094 702.156 628.244L862.855 722.479C871.145 727.34 881.398 727.417 889.747 722.66C910.99 710.556 932.181 698.363 953.357 686.143C961.629 681.371 966.749 672.57 966.815 663.02L967.314 591.096C967.381 581.47 962.303 572.541 953.996 567.678L835.234 498.148C789.632 471.45 749.231 447.346 725.447 433.086C715.243 426.967 715.249 412.25 725.469 406.159C741.212 396.776 763.873 383.383 788.954 368.916C819.452 351.325 846.59 335.614 861.999 326.686C870.3 321.876 875.401 313.019 875.331 303.425C875.144 278.1 874.531 252.778 873.951 227.459C873.735 218.042 868.624 209.416 860.462 204.714L784.118 160.739L735.26 132.596C717.251 122.223 694.78 135.302 694.904 156.085L695.548 263.977Z" fill="#A8E600"/>
<path fill-rule="evenodd" clip-rule="evenodd" d="M563.628 167.641C555.334 172.428 550.207 181.26 550.163 190.836L549.857 258.403C549.649 304.071 550.005 367.23 550.648 398.757L551.817 456.08L607.571 424.094L649.769 399.886C658.152 395.077 663.314 386.144 663.294 376.48L663.165 312.931C663.076 269.383 662.571 206.225 662.043 172.579L661.801 157.18C661.479 136.649 639.214 124.023 621.429 134.286L563.628 167.641ZM248.202 163.043L205.077 187.97C196.751 192.783 191.624 201.673 191.629 211.29L191.654 265.562C191.659 275.263 196.882 284.211 205.328 288.985L248.394 313.327C279.598 330.963 306.143 345.394 306.143 345.394C306.143 345.394 307.158 296.937 307.158 237.712C307.158 214.229 306.971 192.464 306.746 174.745C306.488 154.49 284.758 142.084 267.173 152.138C261.191 155.559 254.797 159.231 248.202 163.043ZM772.816 421.827L861.845 474.045C883.696 486.861 905.495 499.775 927.371 512.553C945.209 522.973 967.476 510.044 967.457 489.385L967.438 468.666L967.391 417.079C967.382 407.501 962.285 398.648 954.004 393.835C936.351 383.574 918.689 373.326 901.009 363.109C892.672 358.292 882.396 358.305 874.066 363.134L772.816 421.827ZM217.375 525.677C184.702 544.334 154.696 561.559 132.318 574.431C114.536 584.659 114.337 610.194 131.922 620.755L191.859 656.749C200.317 661.828 210.875 661.874 219.377 656.869L454.018 518.728L356.505 463.071C348.462 458.48 338.639 458.339 330.497 462.751C309.597 474.079 266.04 497.886 217.375 525.677ZM556.154 643.476L556.468 692.837C556.53 702.527 561.794 711.436 570.251 716.166C635.121 752.453 699.938 788.841 765.016 824.754C782.547 834.428 803.859 822.192 803.965 802.17C804.093 777.859 803.92 752.519 803.772 736.914C803.681 727.432 798.573 718.755 790.364 714.01C737.104 683.23 683.844 652.451 630.581 621.677L555.741 578.436L556.154 643.476ZM318.944 876.579C300.984 886.794 300.997 912.503 318.881 922.85L384.456 960.789C392.522 965.455 402.428 965.618 410.644 961.22L476.637 925.885C485.388 921.2 490.85 912.079 490.85 902.152V849.574C490.85 795.619 488.871 780.962 488.871 780.962C488.871 780.962 386.277 838.281 318.944 876.579Z" fill="white"/>
</svg>
